<?xml version="1.0" standalone="no"?>
<!DOCTYPE svg PUBLIC "-//W3C//DTD SVG 20010904//EN"
 "http://www.w3.org/TR/2001/REC-SVG-20010904/DTD/svg10.dtd">
<svg version="1.0" xmlns="http://www.w3.org/2000/svg"
 width="512.000000pt" height="512.000000pt" viewBox="0 0 512.000000 512.000000"
 preserveAspectRatio="xMidYMid meet">
<metadata>
Created by potrace 1.11, written by Peter Selinger 2001-2013
</metadata>
<g transform="translate(0.000000,512.000000) scale(0.100000,-0.100000)"
fill="#000000" stroke="none">
<path d="M0 2560 l0 -2560 885 0 c487 0 885 4 885 8 0 17 -68 182 -94 228 -14
25 -26 50 -26 54 0 16 327 130 371 130 14 0 26 -13 39 -42 11 -24 28 -56 39
-72 l19 -29 -95 -106 c-52 -58 -110 -121 -129 -139 l-34 -32 710 0 711 0 -39
53 c-22 28 -45 63 -52 76 -19 38 -59 192 -53 207 3 8 22 19 43 25 30 9 47 8
86 -4 27 -8 65 -18 85 -21 20 -4 47 -18 63 -35 25 -26 29 -40 36 -128 5 -54
12 -115 16 -135 l7 -38 87 0 87 0 -4 52 c-3 29 -9 66 -14 82 -12 39 -12 173 1
197 6 10 23 25 39 33 25 13 177 56 198 56 12 0 33 -127 33 -199 0 -66 -14
-107 -59 -168 -17 -24 -31 -45 -31 -48 0 -3 78 -5 173 -4 144 0 167 2 140 12
-18 7 -37 17 -43 23 -6 6 -15 60 -20 120 -5 60 -12 133 -16 162 l-6 53 46 44
c31 29 68 51 109 64 33 12 65 21 69 21 4 0 8 -73 8 -161 0 -129 4 -180 21
-250 l21 -89 404 0 404 0 0 189 0 189 -45 7 c-63 9 -155 42 -178 63 -27 24
-51 75 -76 158 -28 95 -28 104 8 104 17 0 33 -5 36 -10 3 -6 23 -10 43 -10 45
0 77 -21 86 -54 8 -32 70 -138 101 -173 l24 -28 1 367 0 368 -47 30 c-106 67
-556 280 -591 280 -6 0 -27 -24 -48 -52 -20 -29 -47 -61 -61 -72 -31 -23 -38
-20 -171 68 -111 74 -164 96 -291 126 l-90 22 -7 36 c-3 20 -12 61 -20 90 -7
29 -11 58 -8 65 3 7 26 26 52 42 51 33 87 88 98 148 4 26 10 37 19 33 7 -2 32
-10 55 -17 43 -13 43 -13 72 21 26 31 29 40 24 84 -8 75 -22 89 -122 119 -121
37 -241 50 -354 37 -109 -12 -240 -52 -266 -81 -25 -28 -26 -124 -1 -162 21
-32 46 -34 106 -7 57 26 61 26 54 -14 -9 -58 22 -106 120 -188 l27 -23 -16
-85 c-8 -47 -23 -93 -32 -102 -9 -10 -60 -29 -112 -42 -143 -38 -265 -81 -334
-120 -33 -19 -77 -37 -97 -41 -34 -6 -38 -4 -84 49 -46 55 -49 56 -100 56 -41
0 -78 -11 -171 -52 -133 -58 -422 -204 -529 -266 -38 -22 -73 -39 -77 -36 -8
5 -21 53 -31 110 -6 29 -3 32 86 86 125 76 344 190 496 257 69 31 132 60 139
64 16 11 15 39 -4 87 -16 39 -18 40 -63 40 -145 0 -401 -66 -607 -154 -76 -33
-132 -52 -137 -47 -5 5 -11 38 -14 73 l-5 64 113 51 c145 65 289 118 359 132
54 11 298 41 332 41 14 0 16 7 11 37 -8 54 -84 164 -185 269 -74 77 -94 105
-124 174 -20 46 -39 101 -42 122 -4 35 -3 38 19 38 13 0 43 -7 66 -16 24 -9
45 -15 48 -13 2 3 -2 29 -10 59 -38 147 -54 382 -32 482 8 36 11 72 7 78 -4 7
-50 33 -101 59 -93 46 -94 46 -141 126 -85 141 -105 234 -77 340 26 98 84 228
116 259 44 41 148 104 193 116 61 16 229 -5 310 -39 103 -43 190 -95 239 -142
39 -38 101 -146 101 -176 0 -10 25 -13 90 -13 105 0 263 -34 371 -79 69 -29
69 -29 93 -10 75 59 242 109 418 124 l77 7 7 54 c13 109 86 219 174 264 52 26
178 50 260 49 118 -1 194 -43 295 -160 69 -81 122 -163 135 -207 19 -70 13
-241 -16 -441 -7 -42 -82 -120 -142 -146 -38 -17 -42 -22 -47 -64 -11 -93 -38
-236 -81 -420 -8 -35 -12 -66 -10 -68 2 -2 27 7 55 21 60 31 84 33 78 9 -3
-10 -11 -43 -17 -73 -16 -70 -41 -119 -94 -184 -23 -28 -48 -67 -55 -86 -68
-179 -108 -238 -215 -316 -23 -17 -28 -26 -23 -46 6 -24 12 -25 89 -31 117 -8
223 -31 371 -81 l127 -43 0 1294 0 1293 -61 -45 c-33 -24 -76 -47 -96 -51 -50
-9 -124 10 -218 56 -154 74 -304 100 -379 65 -20 -10 -76 -54 -124 -99 -126
-118 -136 -123 -300 -166 -81 -21 -173 -50 -205 -64 -95 -43 -96 -42 -104 114
-3 58 -9 112 -14 120 -4 9 -35 21 -70 29 -35 7 -76 19 -91 27 -15 8 -31 14
-35 14 -4 0 -19 -30 -31 -67 -30 -87 -89 -193 -107 -193 -54 0 -553 292 -604
354 -12 15 -17 13 -55 -17 -58 -47 -171 -122 -314 -207 -120 -71 -125 -76
-183 -160 -90 -132 -79 -128 -190 -84 -52 20 -97 40 -101 43 -7 6 79 150 147
246 19 28 88 103 153 166 100 99 126 120 182 142 36 14 104 42 151 61 47 20
128 45 180 55 l94 20 45 -43 c64 -61 130 -112 253 -200 l108 -77 13 33 c8 18
29 79 47 136 18 56 36 102 40 102 4 0 42 -17 85 -37 44 -20 99 -42 124 -49 43
-12 48 -12 115 22 39 19 81 41 95 49 14 7 63 23 110 35 47 12 93 24 103 26 25
8 22 -13 -18 -106 -30 -71 -35 -93 -35 -162 l0 -81 40 6 c89 12 137 84 185
278 23 92 30 109 44 104 9 -4 46 -9 83 -12 l67 -6 -2 -95 c-2 -77 1 -96 14
-105 24 -15 89 21 193 107 l88 74 47 -19 c113 -48 318 -159 463 -252 31 -21
60 -37 63 -37 3 0 5 164 5 365 l0 365 -2560 0 -2560 0 0 -2560z m1992 1305 c2
-3 -4 -53 -13 -112 -10 -60 -18 -144 -18 -188 -1 -69 4 -91 35 -165 64 -154
70 -178 54 -208 -9 -15 -38 -38 -69 -53 -29 -14 -56 -30 -60 -36 -3 -5 -58
-53 -122 -106 -64 -52 -135 -117 -158 -144 -22 -26 -41 -43 -41 -37 0 5 -9 84
-20 173 -11 90 -19 165 -18 166 104 68 149 100 174 122 l32 28 -20 110 c-13
77 -18 143 -16 220 3 99 6 115 31 157 36 62 65 77 153 78 39 0 73 -2 76 -5z
m103 -1001 c10 -11 13 -23 9 -38 -4 -11 -13 -48 -19 -81 -9 -51 -16 -63 -45
-83 -68 -45 -344 -258 -391 -300 -47 -43 -48 -43 -54 -20 -37 161 -43 256 -22
358 11 48 17 57 52 77 129 73 428 129 470 87z m-39 -536 c-4 -29 -14 -80 -22
-114 -15 -58 -17 -61 -72 -91 -63 -35 -139 -90 -199 -144 -43 -39 -267 -290
-286 -320 -7 -11 -15 -19 -18 -19 -4 0 -10 48 -14 108 -4 59 -13 140 -21 180
-26 139 -34 125 131 236 80 53 162 104 182 113 48 20 293 101 312 102 11 1 12
-10 7 -51z m-330 -734 c-25 -118 -21 -228 14 -387 l30 -137 -31 -62 c-35 -70
-123 -194 -142 -201 -17 -5 -64 127 -87 249 -15 75 -21 151 -23 298 l-2 198
125 69 c69 37 126 64 128 59 2 -5 -4 -44 -12 -86z m2205 -229 c108 -14 227
-48 301 -86 l41 -21 -6 -91 c-4 -58 -15 -118 -30 -163 -24 -68 -66 -146 -86
-158 -5 -3 -21 9 -37 26 -26 32 -140 128 -151 128 -3 0 -2 -12 1 -26 4 -15 0
-62 -10 -105 -19 -87 -21 -89 -112 -89 -67 0 -97 16 -156 81 -25 28 -46 45
-46 38 0 -34 -24 -94 -45 -115 -21 -21 -34 -24 -93 -24 -39 0 -75 5 -84 12
-20 16 -35 87 -44 201 -3 48 -11 87 -16 87 -5 0 -37 -27 -71 -59 l-62 -59 -32
27 c-17 14 -41 49 -53 76 -22 50 -61 168 -57 170 146 92 273 138 432 158 76
10 320 5 416 -8z m-2038 -487 c34 -42 77 -118 77 -136 0 -5 -51 -59 -114 -121
-62 -62 -119 -124 -127 -139 -15 -31 -49 -72 -60 -72 -4 0 -10 42 -13 93 -5
63 -15 113 -33 160 l-26 68 23 17 c14 9 39 26 56 37 18 11 63 46 100 78 37 31
71 57 75 57 4 0 23 -19 42 -42z m486 22 c21 -10 50 -33 65 -50 23 -28 26 -40
26 -110 0 -76 34 -236 74 -349 9 -24 15 -45 13 -47 -1 -1 -61 30 -132 69
l-130 72 -17 69 c-24 97 -34 234 -19 279 15 44 48 87 67 87 8 0 32 -9 53 -20z
m466 -178 c78 -54 146 -218 130 -314 -6 -34 -67 -191 -81 -206 -5 -7 -35 59
-65 146 -17 48 -50 116 -75 153 l-45 65 15 60 c8 32 17 76 21 97 6 36 8 38 33
33 15 -4 45 -19 67 -34z m1780 -194 c50 -18 55 -26 55 -98 0 -85 30 -203 74
-290 42 -82 37 -90 -52 -90 -81 0 -107 15 -156 91 -88 135 -119 283 -90 426
l4 23 68 -26 c37 -14 81 -31 97 -36z"/>
<path d="M4575 3871 c-22 -10 -50 -28 -62 -40 -50 -48 -110 -184 -98 -222 3
-9 27 -25 52 -34 82 -32 162 -86 237 -161 69 -69 75 -73 103 -65 45 13 82 40
99 73 8 15 20 74 26 131 14 133 1 202 -49 258 -63 70 -221 100 -308 60z"/>
<path d="M2597 3836 c-191 -79 -235 -199 -132 -360 32 -51 152 -176 167 -176
5 0 50 42 101 93 50 51 130 120 175 152 46 32 86 63 88 70 3 6 -5 37 -16 68
-25 66 -58 97 -155 144 -86 41 -144 43 -228 9z"/>
<path d="M3865 3441 c-13 -21 21 -63 76 -93 61 -34 79 -59 79 -113 0 -33 0
-34 56 -41 83 -10 159 1 209 31 125 73 59 129 -223 190 -175 38 -188 40 -197
26z"/>
<path d="M3423 3410 c-34 -10 -89 -35 -122 -55 -72 -44 -151 -126 -151 -155 0
-17 6 -20 43 -20 23 0 73 -5 110 -10 38 -6 75 -7 82 -3 28 16 136 160 147 195
21 71 0 80 -109 48z"/>
<path d="M2860 3004 c-14 -3 -44 -7 -68 -10 -40 -5 -41 -7 -31 -27 20 -38 202
-217 247 -244 40 -24 48 -25 131 -19 l88 7 5 -39 c8 -57 -7 -244 -21 -271 -7
-13 -41 -35 -78 -52 -126 -56 -179 -120 -190 -224 -5 -48 -3 -56 20 -79 29
-29 33 -28 116 20 89 52 98 61 113 106 11 33 25 50 64 75 98 64 91 54 99 148
4 47 19 182 34 300 31 244 30 255 -38 293 -37 21 -51 22 -252 21 -118 -1 -225
-3 -239 -5z"/>
<path d="M4054 2994 c-17 -8 -46 -30 -64 -49 l-32 -33 20 -133 c21 -136 42
-330 42 -386 0 -27 7 -35 58 -65 48 -28 62 -44 93 -102 35 -66 38 -69 130
-117 51 -28 108 -61 127 -75 42 -32 52 -25 97 68 24 49 30 70 22 76 -25 19
-183 115 -204 123 -12 4 -39 32 -61 61 -47 63 -79 93 -109 102 -24 8 -28 28
-39 211 l-6 110 23 -22 c35 -32 73 -43 147 -43 99 1 168 37 187 98 4 13 30 38
58 57 55 35 124 101 116 110 -7 7 -359 25 -479 25 -65 0 -105 -5 -126 -16z"/>
<path d="M4154 1796 c-11 -45 -1 -60 41 -67 22 -4 71 -21 108 -38 38 -17 75
-31 82 -31 8 0 16 17 20 43 3 23 9 49 11 58 7 25 -102 59 -188 59 -63 0 -68
-2 -74 -24z"/>
<path d="M3042 1790 c-29 -4 -56 -10 -59 -13 -9 -9 28 -108 42 -113 25 -10
222 103 207 118 -14 14 -125 19 -190 8z"/>
<path d="M4560 1672 l0 -78 93 -38 c106 -45 220 -101 362 -180 l100 -55 3 141
c1 78 -1 145 -5 148 -27 24 -470 140 -535 140 -16 0 -18 -10 -18 -78z"/>
</g>
</svg>
